<?xml version="1.0" encoding="utf-8"?>
<!-- Generator: Adobe Illustrator 25.0.0, SVG Export Plug-In . SVG Version: 6.00 Build 0)  -->
<svg version="1.1" id="Layer_1" xmlns="http://www.w3.org/2000/svg" xmlns:xlink="http://www.w3.org/1999/xlink" x="0px" y="0px"
	 viewBox="0 0 500 250" style="enable-background:new 0 0 500 250;" xml:space="preserve">
<style type="text/css">
	.st0{fill:none;stroke:#B3B3B3;stroke-width:5.3295;stroke-miterlimit:10;}
	.st1{fill:#352D2A;}
	.st2{opacity:0.1;fill:#FFFFFF;}
	.st3{fill:#B3B3B3;}
	.st4{fill:#3A2608;}
	.st5{fill:#680368;}
	.st6{fill:none;stroke:#540166;stroke-width:1.5822;stroke-miterlimit:10;}
	.st7{fill:#955295;}
	.st8{fill:#C71B18;}
	.st9{opacity:0.2;}
	.st10{opacity:0.5;fill:#FFFFFF;}
	.st11{fill:none;stroke:#960200;stroke-width:2;stroke-miterlimit:10;}
	.st12{fill:#FEBB0D;stroke:#960200;stroke-width:0.75;stroke-miterlimit:10;}
	.st13{fill:#659930;stroke:#366800;stroke-width:1.1803;stroke-miterlimit:10;}
	.st14{fill:#FECE00;}
	.st15{fill:none;stroke:#FA8C04;stroke-width:2.1952;stroke-miterlimit:10;}
	.st16{opacity:0.5;}
	.st17{fill:#FFFFFF;}
	.st18{fill:#99FF66;stroke:#47A641;stroke-miterlimit:10;}
	.st19{fill:#75BC4D;}
	.st20{opacity:0.6;fill:#FFFFFF;}
	.st21{fill:#99FF66;}
	.st22{fill:none;stroke:#47A641;stroke-width:2.4514;stroke-miterlimit:10;}
	.st23{opacity:0.6;}
	.st24{fill:#C70A3F;stroke:#900439;stroke-width:0.6373;stroke-miterlimit:10;}
	.st25{fill:#B20942;}
	.st26{fill:#659930;stroke:#366800;stroke-miterlimit:10;}
	.st27{fill:#C70A3F;}
	.st28{fill:none;stroke:#900439;stroke-width:1.9204;stroke-miterlimit:10;}
	.st29{fill:#659930;}
	.st30{fill:none;stroke:#366800;stroke-width:1.2803;stroke-miterlimit:10;}
	.st31{fill:#FDCD02;}
	.st32{fill:none;stroke:#A17646;stroke-width:2.0243;stroke-miterlimit:10;}
	.st33{fill:none;stroke:#A17646;stroke-width:2;stroke-miterlimit:10;}
	.st34{fill:#339B01;}
	.st35{fill:none;stroke:#306B02;stroke-width:2;stroke-miterlimit:10;}
	.st36{fill:#306B02;}
	.st37{fill:#007339;}
	.st38{fill:#FE252B;}
	.st39{fill:#333333;}
	.st40{opacity:0.2;fill:#FFFFFF;}
</style>
<g>
	<path class="st37" d="M500,0H0c0,138.07,111.93,250,250,250S500,138.07,500,0z"/>
	<path class="st18" d="M480,0H20c0,132.55,102.97,240,230,240S480,132.55,480,0z"/>
	<path class="st38" d="M457,0H43c0,125.92,92.68,228,207,228S457,125.92,457,0z"/>
	<g>
		<path class="st39" d="M74.77,49.78c6.05-6.05,15.2-6.72,15.56-6.36s-0.31,9.5-6.36,15.56c-6.05,6.05-10.19,6.07-12.73,3.54
			C68.7,59.97,68.72,55.83,74.77,49.78z"/>
		<path class="st39" d="M99.76,106.69c6.05-6.05,15.2-6.72,15.56-6.36s-0.31,9.5-6.36,15.56c-6.05,6.05-10.19,6.07-12.73,3.54
			S93.71,112.74,99.76,106.69z"/>
		<path class="st39" d="M400.26,106.69c-6.05-6.05-15.2-6.72-15.56-6.36s0.31,9.5,6.36,15.56c6.05,6.05,10.19,6.07,12.73,3.54
			C406.34,116.88,406.32,112.74,400.26,106.69z"/>
		<path class="st39" d="M134.76,155.69c6.05-6.05,15.2-6.72,15.56-6.36c0.35,0.35-0.31,9.5-6.36,15.56
			c-6.05,6.05-10.19,6.07-12.73,3.54S128.71,161.74,134.76,155.69z"/>
		<path class="st39" d="M365.26,155.69c-6.05-6.05-15.2-6.72-15.56-6.36c-0.35,0.35,0.31,9.5,6.36,15.56
			c6.05,6.05,10.19,6.07,12.73,3.54C371.34,165.88,371.32,161.74,365.26,155.69z"/>
		<path class="st39" d="M317.02,184.17c-3.35-7.88-11.58-11.92-12.04-11.73s-3.27,8.93,0.08,16.81s7.17,9.45,10.48,8.04
			C318.83,195.89,320.36,192.05,317.02,184.17z"/>
		<path class="st39" d="M181.31,184.17c3.35-7.88,11.58-11.92,12.04-11.73s3.27,8.93-0.08,16.81s-7.17,9.45-10.48,8.04
			C179.49,195.89,177.96,192.05,181.31,184.17z"/>
		<path class="st39" d="M243.27,195.87c0-8.56,6-15.5,6.5-15.5s6.5,6.94,6.5,15.5s-2.91,11.5-6.5,11.5
			C246.18,207.37,243.27,204.43,243.27,195.87z"/>
		<path class="st39" d="M415.5,58.97c-6.05-6.05-6.72-15.2-6.36-15.56c0.35-0.35,9.5,0.31,15.56,6.36s6.07,10.19,3.54,12.73
			C425.69,65.04,421.55,65.02,415.5,58.97z"/>
	</g>
	<path class="st40" d="M163.41,207.14C227.18,179.18,283.84,125.94,269,66c-6.57-26.54-5.95-48.32-1.48-66H43
		C43,91.87,92.33,171.03,163.41,207.14z"/>
</g>
</svg>
