<?xml version="1.0" encoding="utf-8"?>
<!-- Generator: Adobe Illustrator 25.0.0, SVG Export Plug-In . SVG Version: 6.00 Build 0)  -->
<svg version="1.1" id="Layer_1" xmlns="http://www.w3.org/2000/svg" xmlns:xlink="http://www.w3.org/1999/xlink" x="0px" y="0px"
	 viewBox="0 0 132.63 151.33" style="enable-background:new 0 0 132.63 151.33;" xml:space="preserve">
<style type="text/css">
	.st0{fill:none;stroke:#B3B3B3;stroke-width:5.3295;stroke-miterlimit:10;}
	.st1{fill:#352D2A;}
	.st2{opacity:0.1;fill:#FFFFFF;}
	.st3{fill:#B3B3B3;}
	.st4{fill:#3A2608;}
	.st5{fill:#680368;}
	.st6{fill:none;stroke:#540166;stroke-width:1.5822;stroke-miterlimit:10;}
	.st7{fill:#955295;}
	.st8{fill:#C71B18;}
	.st9{opacity:0.2;}
	.st10{opacity:0.5;fill:#FFFFFF;}
	.st11{fill:none;stroke:#960200;stroke-width:2;stroke-miterlimit:10;}
	.st12{fill:#FEBB0D;stroke:#960200;stroke-width:0.75;stroke-miterlimit:10;}
	.st13{fill:#659930;stroke:#366800;stroke-width:1.1803;stroke-miterlimit:10;}
	.st14{fill:#FECE00;}
	.st15{fill:none;stroke:#FA8C04;stroke-width:2.1952;stroke-miterlimit:10;}
	.st16{opacity:0.5;}
	.st17{fill:#FFFFFF;}
	.st18{fill:#99FF66;stroke:#47A641;stroke-miterlimit:10;}
	.st19{fill:#75BC4D;}
	.st20{opacity:0.6;fill:#FFFFFF;}
	.st21{fill:#99FF66;}
	.st22{fill:none;stroke:#47A641;stroke-width:2.4514;stroke-miterlimit:10;}
	.st23{opacity:0.6;}
	.st24{fill:#C70A3F;stroke:#900439;stroke-width:0.6373;stroke-miterlimit:10;}
	.st25{fill:#B20942;}
	.st26{fill:#659930;stroke:#366800;stroke-miterlimit:10;}
	.st27{fill:#C70A3F;}
	.st28{fill:none;stroke:#900439;stroke-width:1.9204;stroke-miterlimit:10;}
	.st29{fill:#659930;}
	.st30{fill:none;stroke:#366800;stroke-width:1.2803;stroke-miterlimit:10;}
	.st31{fill:#FDCD02;}
	.st32{fill:none;stroke:#A17646;stroke-width:2.0243;stroke-miterlimit:10;}
	.st33{fill:none;stroke:#A17646;stroke-width:2;stroke-miterlimit:10;}
	.st34{fill:#339B01;}
	.st35{fill:none;stroke:#306B02;stroke-width:2;stroke-miterlimit:10;}
	.st36{fill:#306B02;}
	.st37{fill:#007339;}
	.st38{fill:#FE252B;}
	.st39{fill:#333333;}
	.st40{opacity:0.2;fill:#FFFFFF;}
</style>
<g>
	<g>
		<ellipse class="st21" cx="66" cy="86.4" rx="64.96" ry="62.51"/>
		<ellipse class="st22" cx="66" cy="86.4" rx="64.96" ry="62.51"/>
	</g>
	<g class="st9">
		<path d="M66,106.01c-31.48,0-57.72-15-63.69-34.91c-0.83,4.15-1.28,8.45-1.28,12.85c0,35.88,29.08,64.96,64.96,64.96
			c35.88,0,64.96-29.08,64.96-64.96c0-4.4-0.44-8.69-1.28-12.85C123.72,91.01,97.48,106.01,66,106.01z"/>
	</g>
	<g>
		<ellipse class="st19" cx="66.61" cy="35.53" rx="10.42" ry="4.29"/>
		<path class="st4" d="M63.55,34.92c0,0,3.63,2.45,6.72,0c0,0,3.09-24.51,19.02-28.19c0,0-2.45-8.58-8.58-4.9
			S64.77,15.31,63.55,34.92z"/>
	</g>
	<g class="st23">
		<path class="st17" d="M73.58,139.58c-35.88,0-64.96-27.87-64.96-62.25c0-15.69,6.07-30.02,16.08-40.97
			C11.09,47.78,2.49,64.53,2.49,83.21c0,34.38,29.08,62.25,64.96,62.25c19.5,0,36.98-8.24,48.89-21.28
			C104.91,133.76,89.96,139.58,73.58,139.58z"/>
	</g>
</g>
</svg>
