<?xml version="1.0" encoding="utf-8"?>
<!-- Generator: Adobe Illustrator 25.0.0, SVG Export Plug-In . SVG Version: 6.00 Build 0)  -->
<svg version="1.1" id="Layer_1" xmlns="http://www.w3.org/2000/svg" xmlns:xlink="http://www.w3.org/1999/xlink" x="0px" y="0px"
	 viewBox="0 0 110.8 173.76" style="enable-background:new 0 0 110.8 173.76;" xml:space="preserve">
<style type="text/css">
	.st0{fill:none;stroke:#B3B3B3;stroke-width:5.3295;stroke-miterlimit:10;}
	.st1{fill:#352D2A;}
	.st2{opacity:0.1;fill:#FFFFFF;}
	.st3{fill:#B3B3B3;}
	.st4{fill:#3A2608;}
	.st5{fill:#680368;}
	.st6{fill:none;stroke:#540166;stroke-width:1.5822;stroke-miterlimit:10;}
	.st7{fill:#955295;}
	.st8{fill:#C71B18;}
	.st9{opacity:0.2;}
	.st10{opacity:0.5;fill:#FFFFFF;}
	.st11{fill:none;stroke:#960200;stroke-width:2;stroke-miterlimit:10;}
	.st12{fill:#FEBB0D;stroke:#960200;stroke-width:0.75;stroke-miterlimit:10;}
	.st13{fill:#659930;stroke:#366800;stroke-width:1.1803;stroke-miterlimit:10;}
	.st14{fill:#FECE00;}
	.st15{fill:none;stroke:#FA8C04;stroke-width:2.1952;stroke-miterlimit:10;}
	.st16{opacity:0.5;}
	.st17{fill:#FFFFFF;}
	.st18{fill:#99FF66;stroke:#47A641;stroke-miterlimit:10;}
	.st19{fill:#75BC4D;}
	.st20{opacity:0.6;fill:#FFFFFF;}
	.st21{fill:#99FF66;}
	.st22{fill:none;stroke:#47A641;stroke-width:2.4514;stroke-miterlimit:10;}
	.st23{opacity:0.6;}
	.st24{fill:#C70A3F;stroke:#900439;stroke-width:0.6373;stroke-miterlimit:10;}
	.st25{fill:#B20942;}
	.st26{fill:#659930;stroke:#366800;stroke-miterlimit:10;}
	.st27{fill:#C70A3F;}
	.st28{fill:none;stroke:#900439;stroke-width:1.9204;stroke-miterlimit:10;}
	.st29{fill:#659930;}
	.st30{fill:none;stroke:#366800;stroke-width:1.2803;stroke-miterlimit:10;}
	.st31{fill:#FDCD02;}
	.st32{fill:none;stroke:#A17646;stroke-width:2.0243;stroke-miterlimit:10;}
	.st33{fill:none;stroke:#A17646;stroke-width:2;stroke-miterlimit:10;}
	.st34{fill:#339B01;}
	.st35{fill:none;stroke:#306B02;stroke-width:2;stroke-miterlimit:10;}
	.st36{fill:#306B02;}
	.st37{fill:#007339;}
	.st38{fill:#FE252B;}
	.st39{fill:#333333;}
	.st40{opacity:0.2;fill:#FFFFFF;}
</style>
<g>
	<g>
		<path class="st14" d="M84.09,68.1c-2.4-36.05-15.31-43.65-30.88-43.65c-16.12,0-29.39,5.26-31.1,46.99
			C9.31,81.79,1.07,97.94,1.07,116.1c0,31.22,24.33,56.53,54.33,56.53c30.01,0,54.33-25.31,54.33-56.53
			C109.73,95.84,99.48,78.08,84.09,68.1z"/>
		<path class="st15" d="M84.09,68.1c-2.4-36.05-15.31-43.65-30.88-43.65c-16.12,0-29.39,5.26-31.1,46.99
			C9.31,81.79,1.07,97.94,1.07,116.1c0,31.22,24.33,56.53,54.33,56.53c30.01,0,54.33-25.31,54.33-56.53
			C109.73,95.84,99.48,78.08,84.09,68.1z"/>
	</g>
	<g class="st9">
		<ellipse cx="52.66" cy="32.13" rx="9.33" ry="3.84"/>
	</g>
	<path class="st4" d="M49.91,31.58c0,0,3.25,2.2,6.01,0c0,0,2.77-21.95,17.04-25.25c0,0-2.2-7.68-7.68-4.39S51.01,14.02,49.91,31.58
		z"/>
	<g class="st16">
		<path class="st17" d="M62.96,164.46c-29.67,0-53.72-25.02-53.72-55.89c0-14.41,5.25-27.55,13.86-37.47
			C11.31,81.35,3.81,96.76,3.81,113.99c0,30.87,24.05,55.89,53.72,55.89c15.81,0,30.03-7.11,39.86-18.43
			C88.07,159.57,76.06,164.46,62.96,164.46z"/>
	</g>
	<g class="st9">
		<path d="M109,106.84c-2.22,18.08-25.6,32.31-54.14,32.31c-26.76,0-48.99-12.51-53.49-28.97c-0.2,1.95-0.3,3.92-0.3,5.92
			c0,31.22,24.33,56.53,54.33,56.53c30.01,0,54.33-25.31,54.33-56.53C109.73,112.95,109.47,109.86,109,106.84z"/>
	</g>
</g>
</svg>
