<?xml version="1.0" encoding="utf-8"?>
<!-- Generator: Adobe Illustrator 25.0.0, SVG Export Plug-In . SVG Version: 6.00 Build 0)  -->
<svg version="1.1" id="Layer_1" xmlns="http://www.w3.org/2000/svg" xmlns:xlink="http://www.w3.org/1999/xlink" x="0px" y="0px"
	 viewBox="0 0 153 151" style="enable-background:new 0 0 153 151;" xml:space="preserve">
<style type="text/css">
	.st0{fill:none;stroke:#B3B3B3;stroke-width:5.3295;stroke-miterlimit:10;}
	.st1{fill:#352D2A;}
	.st2{opacity:0.1;fill:#FFFFFF;}
	.st3{fill:#B3B3B3;}
	.st4{fill:#3A2608;}
	.st5{fill:#680368;}
	.st6{fill:none;stroke:#540166;stroke-width:1.5822;stroke-miterlimit:10;}
	.st7{fill:#955295;}
	.st8{fill:#C71B18;}
	.st9{opacity:0.2;}
	.st10{opacity:0.5;fill:#FFFFFF;}
	.st11{fill:none;stroke:#960200;stroke-width:2;stroke-miterlimit:10;}
	.st12{fill:#FEBB0D;stroke:#960200;stroke-width:0.75;stroke-miterlimit:10;}
	.st13{fill:#659930;stroke:#366800;stroke-width:1.1803;stroke-miterlimit:10;}
	.st14{fill:#FECE00;}
	.st15{fill:none;stroke:#FA8C04;stroke-width:2.1952;stroke-miterlimit:10;}
	.st16{opacity:0.5;}
	.st17{fill:#FFFFFF;}
	.st18{fill:#99FF66;stroke:#47A641;stroke-miterlimit:10;}
	.st19{fill:#75BC4D;}
	.st20{opacity:0.6;fill:#FFFFFF;}
	.st21{fill:#99FF66;}
	.st22{fill:none;stroke:#47A641;stroke-width:2.4514;stroke-miterlimit:10;}
	.st23{opacity:0.6;}
	.st24{fill:#C70A3F;stroke:#900439;stroke-width:0.6373;stroke-miterlimit:10;}
	.st25{fill:#B20942;}
	.st26{fill:#659930;stroke:#366800;stroke-miterlimit:10;}
	.st27{fill:#C70A3F;}
	.st28{fill:none;stroke:#900439;stroke-width:1.9204;stroke-miterlimit:10;}
	.st29{fill:#659930;}
	.st30{fill:none;stroke:#366800;stroke-width:1.2803;stroke-miterlimit:10;}
	.st31{fill:#FDCD02;}
	.st32{fill:none;stroke:#A17646;stroke-width:2.0243;stroke-miterlimit:10;}
	.st33{fill:none;stroke:#A17646;stroke-width:2;stroke-miterlimit:10;}
	.st34{fill:#339B01;}
	.st35{fill:none;stroke:#306B02;stroke-width:2;stroke-miterlimit:10;}
	.st36{fill:#306B02;}
	.st37{fill:#007339;}
	.st38{fill:#FE252B;}
	.st39{fill:#333333;}
	.st40{opacity:0.2;fill:#FFFFFF;}
</style>
<g>
	<g>
		<g>
			<ellipse class="st27" cx="71.92" cy="35.38" rx="21.62" ry="20.8"/>
			<ellipse class="st28" cx="71.92" cy="35.38" rx="21.62" ry="20.8"/>
		</g>
		<path class="st25" d="M93.54,35.38c0-2.93-0.32-5.47-0.9-7.68c-7.03,0.09-19.24,1.45-18.07,9.92c1.63,11.83-19.84,6.93-19.84,6.93
			s-0.94-0.15-2.36-0.3c3.46,7.05,10.91,11.92,19.55,11.92C83.86,56.19,93.54,46.87,93.54,35.38z"/>
	</g>
	<g>
		<g>
			<ellipse class="st27" cx="80.91" cy="128.57" rx="21.62" ry="20.8"/>
			<ellipse class="st28" cx="80.91" cy="128.57" rx="21.62" ry="20.8"/>
		</g>
		<path class="st25" d="M102.53,128.57c0-2.93-0.32-5.47-0.9-7.68c-7.03,0.09-19.24,1.45-18.07,9.92
			c1.63,11.83-19.84,6.93-19.84,6.93s-0.94-0.15-2.36-0.3c3.46,7.05,10.91,11.92,19.55,11.92
			C92.85,149.38,102.53,140.06,102.53,128.57z"/>
	</g>
	<g>
		<g>
			<ellipse class="st27" cx="39.94" cy="41.52" rx="21.62" ry="20.8"/>
			<ellipse class="st28" cx="39.94" cy="41.52" rx="21.62" ry="20.8"/>
		</g>
		<path class="st25" d="M61.56,41.52c0-2.93-0.32-5.47-0.9-7.68c-7.03,0.09-19.24,1.45-18.07,9.92c1.63,11.83-19.84,6.93-19.84,6.93
			s-0.94-0.15-2.36-0.3c3.46,7.05,10.91,11.92,19.55,11.92C51.89,62.32,61.56,53.01,61.56,41.52z"/>
	</g>
	<g>
		<g>
			<ellipse class="st27" cx="102.68" cy="41.52" rx="21.62" ry="20.8"/>
			<ellipse class="st28" cx="102.68" cy="41.52" rx="21.62" ry="20.8"/>
		</g>
		<path class="st25" d="M124.3,41.52c0-2.93-0.32-5.47-0.9-7.68c-7.03,0.09-19.24,1.45-18.07,9.92c1.63,11.83-19.84,6.93-19.84,6.93
			s-0.94-0.15-2.36-0.3c3.46,7.05,10.91,11.92,19.55,11.92C114.62,62.32,124.3,53.01,124.3,41.52z"/>
	</g>
	<g>
		<g>
			<ellipse class="st27" cx="52.75" cy="110.65" rx="21.62" ry="20.8"/>
			<ellipse class="st28" cx="52.75" cy="110.65" rx="21.62" ry="20.8"/>
		</g>
		<path class="st25" d="M74.37,110.65c0-2.93-0.32-5.47-0.9-7.68c-7.03,0.09-19.24,1.45-18.07,9.92
			c1.63,11.83-19.84,6.93-19.84,6.93s-0.94-0.15-2.36-0.3c3.46,7.05,10.91,11.92,19.55,11.92
			C64.69,131.45,74.37,122.14,74.37,110.65z"/>
	</g>
	<g>
		<g>
			<ellipse class="st27" cx="103.96" cy="110.65" rx="21.62" ry="20.8"/>
			<ellipse class="st28" cx="103.96" cy="110.65" rx="21.62" ry="20.8"/>
		</g>
		<path class="st25" d="M125.58,110.65c0-2.93-0.32-5.47-0.9-7.68c-7.03,0.09-19.24,1.45-18.07,9.92
			c1.63,11.83-19.84,6.93-19.84,6.93s-0.94-0.15-2.36-0.3c3.46,7.05,10.91,11.92,19.55,11.92
			C115.9,131.45,125.58,122.14,125.58,110.65z"/>
	</g>
	<g>
		<g>
			<ellipse class="st27" cx="33.54" cy="82.48" rx="21.62" ry="20.8"/>
			<ellipse class="st28" cx="33.54" cy="82.48" rx="21.62" ry="20.8"/>
		</g>
		<path class="st25" d="M55.16,82.48c0-2.93-0.32-5.47-0.9-7.68c-7.03,0.09-19.24,1.45-18.07,9.92c1.63,11.83-19.84,6.93-19.84,6.93
			s-0.94-0.15-2.36-0.3c3.46,7.05,10.91,11.92,19.55,11.92C45.48,103.29,55.16,93.97,55.16,82.48z"/>
	</g>
	<g>
		<g>
			<ellipse class="st27" cx="77.07" cy="90.17" rx="21.62" ry="20.8"/>
			<ellipse class="st28" cx="77.07" cy="90.17" rx="21.62" ry="20.8"/>
		</g>
		<path class="st25" d="M98.69,90.17c0-2.93-0.32-5.47-0.9-7.68c-7.03,0.09-19.24,1.45-18.07,9.92c1.63,11.83-19.84,6.93-19.84,6.93
			s-0.94-0.15-2.36-0.3c3.46,7.05,10.91,11.92,19.55,11.92C89.01,110.97,98.69,101.66,98.69,90.17z"/>
	</g>
	<g>
		<g>
			<ellipse class="st27" cx="120.6" cy="83.77" rx="21.62" ry="20.8"/>
			<ellipse class="st28" cx="120.6" cy="83.77" rx="21.62" ry="20.8"/>
		</g>
		<path class="st25" d="M142.22,83.77c0-2.93-0.32-5.47-0.9-7.68c-7.03,0.09-19.24,1.45-18.07,9.92
			c1.63,11.83-19.84,6.93-19.84,6.93s-0.94-0.15-2.36-0.3c3.46,7.05,10.91,11.92,19.55,11.92
			C132.54,104.57,142.22,95.25,142.22,83.77z"/>
	</g>
	<g>
		<g>
			
				<ellipse transform="matrix(0.1169 -0.9931 0.9931 0.1169 -40.9976 77.8962)" class="st27" cx="23.3" cy="62" rx="20.8" ry="21.62"/>
			
				<ellipse transform="matrix(0.1169 -0.9931 0.9931 0.1169 -40.9976 77.8962)" class="st28" cx="23.3" cy="62" rx="20.8" ry="21.62"/>
		</g>
		<path class="st25" d="M44.77,64.53c0.34-2.91,0.32-5.47,0.01-7.73c-7-0.73-19.28-0.81-19.11,7.74
			c0.24,11.94-20.52,4.57-20.52,4.57s-0.91-0.26-2.31-0.57c2.62,7.4,9.45,13.12,18.03,14.13C32.73,84.06,43.43,75.94,44.77,64.53z"
			/>
	</g>
	<g>
		<g>
			<ellipse class="st27" cx="129.56" cy="56.88" rx="21.62" ry="20.8"/>
			<ellipse class="st28" cx="129.56" cy="56.88" rx="21.62" ry="20.8"/>
		</g>
		<path class="st25" d="M151.18,56.88c0-2.93-0.32-5.47-0.9-7.68c-7.03,0.09-19.24,1.45-18.07,9.92
			c1.63,11.83-19.84,6.93-19.84,6.93s-0.94-0.15-2.36-0.3c3.46,7.05,10.91,11.92,19.55,11.92C141.5,77.68,151.18,68.37,151.18,56.88
			z"/>
	</g>
	<g>
		<g>
			<ellipse class="st27" cx="55.31" cy="62" rx="21.62" ry="20.8"/>
			<ellipse class="st28" cx="55.31" cy="62" rx="21.62" ry="20.8"/>
		</g>
		<path class="st25" d="M76.93,62c0-2.93-0.32-5.47-0.9-7.68c-7.03,0.09-19.24,1.45-18.07,9.92c1.63,11.83-19.84,6.93-19.84,6.93
			s-0.94-0.15-2.36-0.3c3.46,7.05,10.91,11.92,19.55,11.92C67.25,82.8,76.93,73.49,76.93,62z"/>
	</g>
	<g>
		<g>
			<ellipse class="st27" cx="91.16" cy="62" rx="21.62" ry="20.8"/>
			<ellipse class="st28" cx="91.16" cy="62" rx="21.62" ry="20.8"/>
		</g>
		<path class="st25" d="M112.78,62c0-2.93-0.32-5.47-0.9-7.68c-7.03,0.09-19.24,1.45-18.07,9.92c1.63,11.83-19.84,6.93-19.84,6.93
			s-0.94-0.15-2.36-0.3c3.46,7.05,10.91,11.92,19.55,11.92C103.1,82.8,112.78,73.49,112.78,62z"/>
	</g>
	<g>
		<g>
			<g>
				<path class="st29" d="M18.79,50.69c0,0,6.28-9.99,21.48-12.25s24.42,5.43,24.42,5.43S52.94,71.51,18.79,50.69z"/>
				<path class="st30" d="M18.79,50.69c0,0,6.28-9.99,21.48-12.25s24.42,5.43,24.42,5.43S52.94,71.51,18.79,50.69z"/>
			</g>
			<g>
				<path class="st29" d="M51.56,18.65c0,0-1.07,23.46,13.12,25.23S85.24,18.82,51.56,18.65z"/>
				<path class="st30" d="M51.56,18.65c0,0-1.07,23.46,13.12,25.23S85.24,18.82,51.56,18.65z"/>
			</g>
			<g>
				<path class="st29" d="M120.24,27.86c0,0-26.94-17.88-47.66,13.61C72.58,41.47,120.39,55.02,120.24,27.86z"/>
				<path class="st30" d="M120.24,27.86c0,0-26.94-17.88-47.66,13.61C72.58,41.47,120.39,55.02,120.24,27.86z"/>
			</g>
			<g>
				<path class="st29" d="M95.67,71.63c0,0-55.73-4.67-30.99-27.75S112.6,54.88,95.67,71.63z"/>
				<path class="st30" d="M95.67,71.63c0,0-55.73-4.67-30.99-27.75S112.6,54.88,95.67,71.63z"/>
			</g>
		</g>
		<g>
			<path class="st29" d="M70.14,39.18c0,0,4.12,1.98,6.94-1.03c0,0-0.57-25.8,15.33-32.05c0,0-3.85-8.49-9.62-3.75
				S68.4,18.73,70.14,39.18z"/>
			<path class="st30" d="M70.14,39.18c0,0,4.12,1.98,6.94-1.03c0,0-0.57-25.8,15.33-32.05c0,0-3.85-8.49-9.62-3.75
				S68.4,18.73,70.14,39.18z"/>
		</g>
	</g>
</g>
</svg>
