<?xml version="1.0" encoding="utf-8"?>
<!-- Generator: Adobe Illustrator 25.0.0, SVG Export Plug-In . SVG Version: 6.00 Build 0)  -->
<svg version="1.1" id="Layer_1" xmlns="http://www.w3.org/2000/svg" xmlns:xlink="http://www.w3.org/1999/xlink" x="0px" y="0px"
	 viewBox="0 0 111 165.81" style="enable-background:new 0 0 111 165.81;" xml:space="preserve">
<style type="text/css">
	.st0{fill:none;stroke:#B3B3B3;stroke-width:5.3295;stroke-miterlimit:10;}
	.st1{fill:#352D2A;}
	.st2{opacity:0.1;fill:#FFFFFF;}
	.st3{fill:#B3B3B3;}
	.st4{fill:#3A2608;}
	.st5{fill:#680368;}
	.st6{fill:none;stroke:#540166;stroke-width:1.5822;stroke-miterlimit:10;}
	.st7{fill:#955295;}
	.st8{fill:#C71B18;}
	.st9{opacity:0.2;}
	.st10{opacity:0.5;fill:#FFFFFF;}
	.st11{fill:none;stroke:#960200;stroke-width:2;stroke-miterlimit:10;}
	.st12{fill:#FEBB0D;stroke:#960200;stroke-width:0.75;stroke-miterlimit:10;}
	.st13{fill:#659930;stroke:#366800;stroke-width:1.1803;stroke-miterlimit:10;}
	.st14{fill:#FECE00;}
	.st15{fill:none;stroke:#FA8C04;stroke-width:2.1952;stroke-miterlimit:10;}
	.st16{opacity:0.5;}
	.st17{fill:#FFFFFF;}
	.st18{fill:#99FF66;stroke:#47A641;stroke-miterlimit:10;}
	.st19{fill:#75BC4D;}
	.st20{opacity:0.6;fill:#FFFFFF;}
	.st21{fill:#99FF66;}
	.st22{fill:none;stroke:#47A641;stroke-width:2.4514;stroke-miterlimit:10;}
	.st23{opacity:0.6;}
	.st24{fill:#C70A3F;stroke:#900439;stroke-width:0.6373;stroke-miterlimit:10;}
	.st25{fill:#B20942;}
	.st26{fill:#659930;stroke:#366800;stroke-miterlimit:10;}
	.st27{fill:#C70A3F;}
	.st28{fill:none;stroke:#900439;stroke-width:1.9204;stroke-miterlimit:10;}
	.st29{fill:#659930;}
	.st30{fill:none;stroke:#366800;stroke-width:1.2803;stroke-miterlimit:10;}
	.st31{fill:#FDCD02;}
	.st32{fill:none;stroke:#A17646;stroke-width:2.0243;stroke-miterlimit:10;}
	.st33{fill:none;stroke:#A17646;stroke-width:2;stroke-miterlimit:10;}
	.st34{fill:#339B01;}
	.st35{fill:none;stroke:#306B02;stroke-width:2;stroke-miterlimit:10;}
	.st36{fill:#306B02;}
	.st37{fill:#007339;}
	.st38{fill:#FE252B;}
	.st39{fill:#333333;}
	.st40{opacity:0.2;fill:#FFFFFF;}
</style>
<g>
	<path class="st4" d="M53.22,29.27c0,0,3.12,2.11,5.78,0c0,0,2.66-21.1,16.37-24.26c0,0-2.11-7.38-7.38-4.22
		C62.71,3.95,54.28,12.39,53.22,29.27z"/>
	<g>
		<g>
			<ellipse class="st5" cx="54.45" cy="147.61" rx="17.81" ry="17.14"/>
			<ellipse class="st6" cx="54.45" cy="147.61" rx="17.81" ry="17.14"/>
		</g>
		<path class="st7" d="M72.26,147.61c0-2.41-0.26-4.5-0.74-6.32c-5.8,0.07-15.85,1.2-14.89,8.17c1.34,9.75-16.35,5.71-16.35,5.71
			s-0.77-0.12-1.95-0.24c2.85,5.81,8.99,9.82,16.11,9.82C64.28,164.75,72.26,157.07,72.26,147.61z"/>
	</g>
	<g>
		<g>
			<ellipse class="st5" cx="68.16" cy="130.73" rx="17.81" ry="17.14"/>
			<ellipse class="st6" cx="68.16" cy="130.73" rx="17.81" ry="17.14"/>
		</g>
		<path class="st7" d="M85.97,130.73c0-2.41-0.26-4.5-0.74-6.32c-5.8,0.07-15.85,1.2-14.89,8.17c1.34,9.75-16.35,5.71-16.35,5.71
			s-0.77-0.12-1.95-0.24c2.85,5.81,8.99,9.82,16.11,9.82C78,147.87,85.97,140.2,85.97,130.73z"/>
	</g>
	<g>
		<g>
			<ellipse class="st5" cx="46.01" cy="125.46" rx="17.81" ry="17.14"/>
			<ellipse class="st6" cx="46.01" cy="125.46" rx="17.81" ry="17.14"/>
		</g>
		<path class="st7" d="M63.82,125.46c0-2.41-0.26-4.5-0.74-6.32c-5.8,0.07-15.85,1.2-14.89,8.17c1.34,9.75-16.35,5.71-16.35,5.71
			s-0.77-0.12-1.95-0.24c2.85,5.81,8.99,9.82,16.11,9.82C55.84,142.6,63.82,134.92,63.82,125.46z"/>
	</g>
	<g>
		<g>
			<ellipse class="st5" cx="68.16" cy="85.37" rx="17.81" ry="17.14"/>
			<ellipse class="st6" cx="68.16" cy="85.37" rx="17.81" ry="17.14"/>
		</g>
		<path class="st7" d="M85.97,85.37c0-2.41-0.26-4.5-0.74-6.32c-5.8,0.07-15.85,1.2-14.89,8.17c1.34,9.75-16.35,5.71-16.35,5.71
			s-0.77-0.12-1.95-0.24c2.85,5.81,8.99,9.82,16.11,9.82C78,102.51,85.97,94.84,85.97,85.37z"/>
	</g>
	<g>
		<g>
			<ellipse class="st5" cx="71.32" cy="108.58" rx="17.81" ry="17.14"/>
			<ellipse class="st6" cx="71.32" cy="108.58" rx="17.81" ry="17.14"/>
		</g>
		<path class="st7" d="M89.13,108.58c0-2.41-0.26-4.5-0.74-6.32c-5.8,0.07-15.85,1.2-14.89,8.17c1.34,9.75-16.35,5.71-16.35,5.71
			s-0.77-0.12-1.95-0.24c2.85,5.81,8.99,9.82,16.11,9.82C81.16,125.72,89.13,118.05,89.13,108.58z"/>
	</g>
	<g>
		<g>
			<ellipse class="st5" cx="81.87" cy="68.5" rx="17.81" ry="17.14"/>
			<ellipse class="st6" cx="81.87" cy="68.5" rx="17.81" ry="17.14"/>
		</g>
		<path class="st7" d="M99.68,68.5c0-2.41-0.26-4.5-0.74-6.32c-5.8,0.07-15.85,1.2-14.89,8.17c1.34,9.75-16.35,5.71-16.35,5.71
			s-0.77-0.12-1.95-0.24c2.85,5.81,8.99,9.82,16.11,9.82C91.71,85.64,99.68,77.96,99.68,68.5z"/>
	</g>
	<g>
		<g>
			<ellipse class="st5" cx="92.42" cy="47.4" rx="17.81" ry="17.14"/>
			<ellipse class="st6" cx="92.42" cy="47.4" rx="17.81" ry="17.14"/>
		</g>
		<path class="st7" d="M110.23,47.4c0-2.41-0.26-4.5-0.74-6.32c-5.8,0.07-15.85,1.2-14.89,8.17c1.34,9.75-16.35,5.71-16.35,5.71
			s-0.77-0.12-1.95-0.24c2.85,5.81,8.99,9.82,16.11,9.82C102.26,64.54,110.23,56.87,110.23,47.4z"/>
	</g>
	<g>
		<g>
			<ellipse class="st5" cx="18.58" cy="47.4" rx="17.81" ry="17.14"/>
			<ellipse class="st6" cx="18.58" cy="47.4" rx="17.81" ry="17.14"/>
		</g>
		<path class="st7" d="M36.39,47.4c0-2.41-0.26-4.5-0.74-6.32c-5.8,0.07-15.85,1.2-14.89,8.17C22.11,59,4.42,54.96,4.42,54.96
			s-0.77-0.12-1.95-0.24c2.85,5.81,8.99,9.82,16.11,9.82C28.42,64.54,36.39,56.87,36.39,47.4z"/>
	</g>
	<g>
		<g>
			<ellipse class="st5" cx="39.68" cy="33.69" rx="17.81" ry="17.14"/>
			<ellipse class="st6" cx="39.68" cy="33.69" rx="17.81" ry="17.14"/>
		</g>
		<path class="st7" d="M57.49,33.69c0-2.41-0.26-4.5-0.74-6.32c-5.8,0.07-15.85,1.2-14.89,8.17c1.34,9.75-16.35,5.71-16.35,5.71
			s-0.77-0.12-1.95-0.24c2.85,5.81,8.99,9.82,16.11,9.82C49.52,50.83,57.49,43.16,57.49,33.69z"/>
	</g>
	<g>
		<g>
			<ellipse class="st5" cx="70.27" cy="41.07" rx="17.81" ry="17.14"/>
			<ellipse class="st6" cx="70.27" cy="41.07" rx="17.81" ry="17.14"/>
		</g>
		<path class="st7" d="M88.08,41.07c0-2.41-0.26-4.5-0.74-6.32c-5.8,0.07-15.85,1.2-14.89,8.17c1.34,9.75-16.35,5.71-16.35,5.71
			s-0.77-0.12-1.95-0.24c2.85,5.81,8.99,9.82,16.11,9.82C80.1,58.21,88.08,50.54,88.08,41.07z"/>
	</g>
	<g>
		<g>
			<ellipse class="st5" cx="28.08" cy="69.55" rx="17.81" ry="17.14"/>
			<ellipse class="st6" cx="28.08" cy="69.55" rx="17.81" ry="17.14"/>
		</g>
		<path class="st7" d="M45.89,69.55c0-2.41-0.26-4.5-0.74-6.32c-5.8,0.07-15.85,1.2-14.89,8.17c1.34,9.75-16.35,5.71-16.35,5.71
			s-0.77-0.12-1.95-0.24c2.85,5.81,8.99,9.82,16.11,9.82C37.91,86.69,45.89,79.02,45.89,69.55z"/>
	</g>
	<g>
		<g>
			<ellipse class="st5" cx="38.62" cy="96.98" rx="17.81" ry="17.14"/>
			<ellipse class="st6" cx="38.62" cy="96.98" rx="17.81" ry="17.14"/>
		</g>
		<path class="st7" d="M56.44,96.98c0-2.41-0.26-4.5-0.74-6.32c-5.8,0.07-15.85,1.2-14.89,8.17c1.34,9.75-16.35,5.71-16.35,5.71
			s-0.77-0.12-1.95-0.24c2.85,5.81,8.99,9.82,16.11,9.82C48.46,114.12,56.44,106.44,56.44,96.98z"/>
	</g>
	<g>
		<g>
			<ellipse class="st5" cx="50.23" cy="64.28" rx="17.81" ry="17.14"/>
			<ellipse class="st6" cx="50.23" cy="64.28" rx="17.81" ry="17.14"/>
		</g>
		<path class="st7" d="M68.04,64.28c0-2.41-0.26-4.5-0.74-6.32c-5.8,0.07-15.85,1.2-14.89,8.17c1.34,9.75-16.35,5.71-16.35,5.71
			s-0.77-0.12-1.95-0.24c2.85,5.81,8.99,9.82,16.11,9.82C60.06,81.42,68.04,73.74,68.04,64.28z"/>
	</g>
</g>
</svg>
