<?xml version="1.0" encoding="utf-8"?>
<!-- Generator: Adobe Illustrator 25.0.0, SVG Export Plug-In . SVG Version: 6.00 Build 0)  -->
<svg version="1.1" id="Layer_1" xmlns="http://www.w3.org/2000/svg" xmlns:xlink="http://www.w3.org/1999/xlink" x="0px" y="0px"
	 viewBox="0 0 117 215" style="enable-background:new 0 0 117 215;" xml:space="preserve">
<style type="text/css">
	.st0{fill:none;stroke:#B3B3B3;stroke-width:5.3295;stroke-miterlimit:10;}
	.st1{fill:#352D2A;}
	.st2{opacity:0.1;fill:#FFFFFF;}
	.st3{fill:#B3B3B3;}
	.st4{fill:#3A2608;}
	.st5{fill:#680368;}
	.st6{fill:none;stroke:#540166;stroke-width:1.5822;stroke-miterlimit:10;}
	.st7{fill:#955295;}
	.st8{fill:#C71B18;}
	.st9{opacity:0.2;}
	.st10{opacity:0.5;fill:#FFFFFF;}
	.st11{fill:none;stroke:#960200;stroke-width:2;stroke-miterlimit:10;}
	.st12{fill:#FEBB0D;stroke:#960200;stroke-width:0.75;stroke-miterlimit:10;}
	.st13{fill:#659930;stroke:#366800;stroke-width:1.1803;stroke-miterlimit:10;}
	.st14{fill:#FECE00;}
	.st15{fill:none;stroke:#FA8C04;stroke-width:2.1952;stroke-miterlimit:10;}
	.st16{opacity:0.5;}
	.st17{fill:#FFFFFF;}
	.st18{fill:#99FF66;stroke:#47A641;stroke-miterlimit:10;}
	.st19{fill:#75BC4D;}
	.st20{opacity:0.6;fill:#FFFFFF;}
	.st21{fill:#99FF66;}
	.st22{fill:none;stroke:#47A641;stroke-width:2.4514;stroke-miterlimit:10;}
	.st23{opacity:0.6;}
	.st24{fill:#C70A3F;stroke:#900439;stroke-width:0.6373;stroke-miterlimit:10;}
	.st25{fill:#B20942;}
	.st26{fill:#659930;stroke:#366800;stroke-miterlimit:10;}
	.st27{fill:#C70A3F;}
	.st28{fill:none;stroke:#900439;stroke-width:1.9204;stroke-miterlimit:10;}
	.st29{fill:#659930;}
	.st30{fill:none;stroke:#366800;stroke-width:1.2803;stroke-miterlimit:10;}
	.st31{fill:#FDCD02;}
	.st32{fill:none;stroke:#A17646;stroke-width:2.0243;stroke-miterlimit:10;}
	.st33{fill:none;stroke:#A17646;stroke-width:2;stroke-miterlimit:10;}
	.st34{fill:#339B01;}
	.st35{fill:none;stroke:#306B02;stroke-width:2;stroke-miterlimit:10;}
	.st36{fill:#306B02;}
	.st37{fill:#007339;}
	.st38{fill:#FE252B;}
	.st39{fill:#333333;}
	.st40{opacity:0.2;fill:#FFFFFF;}
</style>
<g>
	<path class="st31" d="M114.52,139.87c7,70.5-49.16,73.5-58,73.5s-60-7-54-73.5c6.88-76.25,45.16-73.5,54-73.5
		S105.86,52.65,114.52,139.87z"/>
	<g>
		<path class="st10" d="M38.87,80.8l26.49-7.64c0,0,28.94,27.89,20.91,19.84s-45.4-12-45.4-12"/>
		<path class="st10" d="M16.94,92.7c0,0,24.82-1.99,41.08,7.18l-19.16-18L16.94,92.7z"/>
		<path class="st10" d="M108.75,118.34c0,0-21.99-16.63-50.72-18.46c0,0,29.02-6.01,29.64-5.42
			C88.3,95.05,108.75,118.34,108.75,118.34z"/>
		<path class="st10" d="M8.85,121.06c0,0,28.15,0.25,42.05,10.87l-19.85-21.14L8.85,121.06z"/>
		<path class="st10" d="M82.11,124.73c0,0,21.6-3.35,29.64,5.73c0,0,1.95-5.9-3.01-9.41C103.8,117.55,84.43,120.92,82.11,124.73z"/>
		<path class="st10" d="M32.97,108.9c0,0,39.08,4.27,45.95,12.46l-20.89-19.93L32.97,108.9z"/>
		<path class="st10" d="M54.94,133.83c0,0,37.08,1.8,43.47,8.76l-18.52-18.74l-24.95,8.4V133.83z"/>
		<path class="st10" d="M46.32,197.81c0,0,33.92-2.21,45.2,3.27l-20.64-13.05L46.32,197.81z"/>
		<path class="st10" d="M47.78,164.64c0,0,34.68,2.02,47.85,9.96l-23.21-18.2L47.78,164.64z"/>
		<path class="st10" d="M75.44,156.41c0,0,29.28-3.58,36.32,4.78l-12.41-17.51l-25.1,11.07L75.44,156.41z"/>
		<path class="st10" d="M27.37,144.47c0,0,34.68,3.93,45.05,11l-19.64-21.49L27.37,144.47z"/>
		<path class="st10" d="M6.17,153.52c0,0,33.12-1.04,38.37,9.99l-17.16-19.04L6.17,153.52z"/>
	</g>
	<g>
		<path class="st32" d="M58.8,65.55c0,0,51.42,49.96,52.96,56.96"/>
		<path class="st32" d="M31.05,73.16c0,0,77.7,75.12,82.75,90.35"/>
		<path class="st32" d="M15.91,91.43c0,0,71.65,88.32,92.84,89.34"/>
		<path class="st32" d="M95.63,201.07c-30.27-4.06-89.47-82.74-89.47-82.74"/>
		<path class="st32" d="M2.8,151.33c0,0,45.41,58.88,68.62,59.9"/>
		<path class="st32" d="M24.09,201.07c0,0,71.54-12.69,89.71-41.37"/>
		<path class="st32" d="M113.8,136.1c0,0-35.32,21.32-104.95,40.61"/>
		<path class="st32" d="M110.48,120.05C90.01,113.14,4.52,153.52,4.52,153.52"/>
		<path class="st32" d="M103.7,96.51c0,0-19.5-13.85-97.54,24.55"/>
		<path class="st32" d="M14.4,94.08c0,0,35.82-19.9,48.94-19.9"/>
	</g>
	<g class="st16">
		<path class="st17" d="M74.68,102.55c16.68-2.33,23.43-9.02,25.44-16.34C84.66,59.54,62.64,66.37,56.4,66.37
			c-8.84,0-47.12-2.75-54,73.5c-0.62,6.88-0.62,13.11-0.13,18.77C19.88,93.92,34.69,108.13,74.68,102.55z"/>
	</g>
	<g class="st9">
		<path d="M114.52,139.87c-0.79-7.99-1.86-15.13-3.14-21.52c0.58,68.78-45.58,63.2-45.58,63.2c-39-1-43.76,5.1-43.25,18.89
			c13.46,11.05,29.39,12.93,33.97,12.93C65.35,213.37,121.52,210.37,114.52,139.87z"/>
	</g>
	<path class="st33" d="M114.52,139.87c7,70.5-49.16,73.5-58,73.5s-60-7-54-73.5c6.88-76.25,45.16-73.5,54-73.5
		S105.86,52.65,114.52,139.87z"/>
	<g>
		<g>
			<path class="st34" d="M13.56,68.16c0,0,0.24-18.61,18.24-10.61s3,25,37,16c0,0,20-38,37-16c0,0-10-27.71-35-6.85
				c0,0,18-33.15,27-17.15c0,0,0.16-22.73-30.42-4.36c0,0,10.42-31.64,26.42-17.64c0,0-12-26-38,4c0,0-7-18-33-8c0,0,14-7,20,15
				c0,0-27-18-31,12c0,0,9-14,25,9C36.8,43.55-1.68,41.78,13.56,68.16z"/>
			<path class="st35" d="M13.56,68.16c0,0,0.24-18.61,18.24-10.61s3,25,37,16c0,0,20-38,37-16c0,0-10-27.71-35-6.85
				c0,0,18-33.15,27-17.15c0,0,0.16-22.73-30.42-4.36c0,0,10.42-31.64,26.42-17.64c0,0-12-26-38,4c0,0-7-18-33-8c0,0,14-7,20,15
				c0,0-27-18-31,12c0,0,9-14,25,9C36.8,43.55-1.68,41.78,13.56,68.16z"/>
		</g>
		<path class="st36" d="M43.3,18.55c0,0,12,7,13,15c0,0-1-12,9-20c0,0-7,16-4,28c0,0,3-7,11-5c0,0-10,5-11,24c0,0,7-6,16-5
			c0,0-17,9-15,21H51.08c0,0-2.78-10-11.78-21c0,0,4-2,9,3c0,0,1-14-12-26c0,0,8,0,16,11C52.3,43.55,55.3,30.55,43.3,18.55z"/>
	</g>
</g>
</svg>
