<?xml version="1.0" encoding="utf-8"?>
<!-- Generator: Adobe Illustrator 25.0.0, SVG Export Plug-In . SVG Version: 6.00 Build 0)  -->
<svg version="1.1" id="Layer_1" xmlns="http://www.w3.org/2000/svg" xmlns:xlink="http://www.w3.org/1999/xlink" x="0px" y="0px"
	 viewBox="0 0 115 147.81" style="enable-background:new 0 0 115 147.81;" xml:space="preserve">
<style type="text/css">
	.st0{fill:none;stroke:#B3B3B3;stroke-width:5.3295;stroke-miterlimit:10;}
	.st1{fill:#352D2A;}
	.st2{opacity:0.1;fill:#FFFFFF;}
	.st3{fill:#B3B3B3;}
	.st4{fill:#3A2608;}
	.st5{fill:#680368;}
	.st6{fill:none;stroke:#540166;stroke-width:1.5822;stroke-miterlimit:10;}
	.st7{fill:#955295;}
	.st8{fill:#C71B18;}
	.st9{opacity:0.2;}
	.st10{opacity:0.5;fill:#FFFFFF;}
	.st11{fill:none;stroke:#960200;stroke-width:2;stroke-miterlimit:10;}
	.st12{fill:#FEBB0D;stroke:#960200;stroke-width:0.75;stroke-miterlimit:10;}
	.st13{fill:#659930;stroke:#366800;stroke-width:1.1803;stroke-miterlimit:10;}
	.st14{fill:#FECE00;}
	.st15{fill:none;stroke:#FA8C04;stroke-width:2.1952;stroke-miterlimit:10;}
	.st16{opacity:0.5;}
	.st17{fill:#FFFFFF;}
	.st18{fill:#99FF66;stroke:#47A641;stroke-miterlimit:10;}
	.st19{fill:#75BC4D;}
	.st20{opacity:0.6;fill:#FFFFFF;}
	.st21{fill:#99FF66;}
	.st22{fill:none;stroke:#47A641;stroke-width:2.4514;stroke-miterlimit:10;}
	.st23{opacity:0.6;}
	.st24{fill:#C70A3F;stroke:#900439;stroke-width:0.6373;stroke-miterlimit:10;}
	.st25{fill:#B20942;}
	.st26{fill:#659930;stroke:#366800;stroke-miterlimit:10;}
	.st27{fill:#C70A3F;}
	.st28{fill:none;stroke:#900439;stroke-width:1.9204;stroke-miterlimit:10;}
	.st29{fill:#659930;}
	.st30{fill:none;stroke:#366800;stroke-width:1.2803;stroke-miterlimit:10;}
	.st31{fill:#FDCD02;}
	.st32{fill:none;stroke:#A17646;stroke-width:2.0243;stroke-miterlimit:10;}
	.st33{fill:none;stroke:#A17646;stroke-width:2;stroke-miterlimit:10;}
	.st34{fill:#339B01;}
	.st35{fill:none;stroke:#306B02;stroke-width:2;stroke-miterlimit:10;}
	.st36{fill:#306B02;}
	.st37{fill:#007339;}
	.st38{fill:#FE252B;}
	.st39{fill:#333333;}
	.st40{opacity:0.2;fill:#FFFFFF;}
</style>
<g>
	<g>
		<path class="st8" d="M58.96,24.14c-0.08-0.01-0.16-0.03-0.24-0.03c-0.41,0-0.81,0.01-1.22,0.02c-0.41,0-0.81-0.02-1.22-0.02
			c-0.08,0-0.16,0.02-0.24,0.03C11.91,24.84-8.27,42.78,7.72,88.11c11.46,32.48,40.25,60.37,49.78,57.57
			c9.53,2.8,38.31-25.1,49.78-57.57C123.27,42.78,103.09,24.84,58.96,24.14z"/>
		<path class="st9" d="M94.93,37.63c8.33,9.81,9.52,25.19,2.04,47.48c-9.46,28.2-31.84,52.79-42.49,55.29
			c1.15,0.26,2.17,0.29,3.02,0.04c8.7,2.55,35-22.92,45.47-52.59C111.98,62.32,108.41,46.31,94.93,37.63z"/>
		<path class="st10" d="M22.02,101.32C4.99,47.7,26.48,26.47,73.44,25.65c0.08-0.01,0.17-0.04,0.25-0.04c0.44,0,0.87,0.01,1.3,0.02
			c0.44,0,0.86-0.02,1.3-0.02c0.09,0,0.17,0.03,0.25,0.04c0.22,0,0.42,0.02,0.64,0.02c-5.51-0.92-11.6-1.42-18.23-1.53
			c-0.08-0.01-0.16-0.03-0.24-0.03c-0.41,0-0.81,0.01-1.22,0.02c-0.41,0-0.81-0.02-1.22-0.02c-0.08,0-0.16,0.02-0.24,0.03
			C11.91,24.84-8.27,42.78,7.72,88.11c6.51,18.45,18.61,35.41,29.59,46.11C31.23,124.35,25.76,113.1,22.02,101.32z"/>
		<path class="st11" d="M58.96,24.14c-0.08-0.01-0.16-0.03-0.24-0.03c-0.41,0-0.81,0.01-1.22,0.02c-0.41,0-0.81-0.02-1.22-0.02
			c-0.08,0-0.16,0.02-0.24,0.03C11.91,24.84-8.27,42.78,7.72,88.11c11.46,32.48,40.25,60.37,49.78,57.57
			c9.53,2.8,38.31-25.1,49.78-57.57C123.27,42.78,103.09,24.84,58.96,24.14z"/>
		<ellipse class="st12" cx="14.78" cy="50.61" rx="1.5" ry="3.5"/>
		<ellipse class="st12" cx="102.61" cy="75.67" rx="1.5" ry="3.5"/>
		<ellipse class="st12" cx="33.78" cy="70.61" rx="1.5" ry="3.5"/>
		<ellipse class="st12" cx="40.78" cy="38.61" rx="1.5" ry="3.5"/>
		<ellipse class="st12" cx="64.78" cy="46.61" rx="1.5" ry="3.5"/>
		<ellipse class="st12" cx="89.78" cy="41.61" rx="1.5" ry="3.5"/>
		<ellipse class="st12" cx="75.78" cy="61.61" rx="1.5" ry="3.5"/>
		<ellipse class="st12" cx="46.78" cy="57.61" rx="1.5" ry="3.5"/>
		<ellipse class="st12" cx="94.78" cy="59.61" rx="1.5" ry="3.5"/>
		<ellipse class="st12" cx="56.78" cy="82.61" rx="1.5" ry="3.5"/>
		<ellipse class="st12" cx="59.78" cy="133.61" rx="1.5" ry="3.5"/>
		<ellipse class="st12" cx="75.78" cy="123.61" rx="1.5" ry="3.5"/>
		<ellipse class="st12" cx="88.78" cy="107.61" rx="1.5" ry="3.5"/>
		<ellipse class="st12" cx="97.78" cy="91.61" rx="1.5" ry="3.5"/>
		<ellipse class="st12" cx="37.78" cy="120.61" rx="1.5" ry="3.5"/>
		<ellipse class="st12" cx="25.78" cy="105.61" rx="1.5" ry="3.5"/>
		<ellipse class="st12" cx="16.78" cy="91.61" rx="1.5" ry="3.5"/>
		<ellipse class="st12" cx="10.78" cy="71.61" rx="1.5" ry="3.5"/>
		<ellipse class="st12" cx="54.78" cy="114.61" rx="1.5" ry="3.5"/>
		<ellipse class="st12" cx="72.78" cy="105.61" rx="1.5" ry="3.5"/>
		<ellipse class="st12" cx="40.78" cy="98.61" rx="1.5" ry="3.5"/>
		<ellipse class="st12" cx="83.78" cy="84.61" rx="1.5" ry="3.5"/>
		<ellipse class="st12" cx="69.78" cy="79.61" rx="1.5" ry="3.5"/>
		<ellipse class="st12" cx="63.78" cy="97.61" rx="1.5" ry="3.5"/>
		<ellipse class="st12" cx="27.78" cy="84.61" rx="1.5" ry="3.5"/>
		<ellipse class="st12" cx="30.78" cy="51.61" rx="1.5" ry="3.5"/>
		<ellipse class="st12" cx="74.78" cy="34.61" rx="1.5" ry="3.5"/>
		<ellipse class="st12" cx="58.78" cy="64.61" rx="1.5" ry="3.5"/>
		<ellipse class="st12" cx="43.78" cy="78.61" rx="1.5" ry="3.5"/>
		<ellipse class="st12" cx="87.78" cy="64.61" rx="1.5" ry="3.5"/>
	</g>
	<g>
		<path class="st13" d="M9.14,31.48c0,0,5.79-9.21,19.8-11.29s22.51,5.01,22.51,5.01S40.62,50.67,9.14,31.48z"/>
		<path class="st13" d="M39.35,1.93c0,0-0.99,21.62,12.09,23.26C64.53,26.83,70.4,2.1,39.35,1.93z"/>
		<path class="st13" d="M102.66,10.43c0,0-24.84-16.48-43.94,12.55C58.72,22.98,102.8,35.47,102.66,10.43z"/>
		<path class="st13" d="M80.02,50.78c0,0-51.37-4.3-28.57-25.59S95.62,35.34,80.02,50.78z"/>
	</g>
</g>
</svg>
